# xmcd
#
# Track frame offsets:
#	150
#	13497
#	27850
#
# Disc length: 531 seconds
#
# Revision: 0
# Processed by: cddbd v1.4PL0 Copyright (c) Steve Scherf et al.
# Submitted via: EasyCDDAExtractor 4.5.0.2
#
DISCID=1e021103
DTITLE=Tom Astor - Hungrige Herzen
DYEAR=1900
DGENRE=Country
TTITLE0=Hungrige Herzen
TTITLE1=Das letzte Hemd hat keine Taschen
TTITLE2=Five Hundred Miles Away from Home
EXTD=
EXTT0=
EXTT1=
EXTT2=
PLAYORDER=
